<?xml version="1.0" standalone="no"?>
<!DOCTYPE svg PUBLIC "-//W3C//DTD SVG 20010904//EN"
 "http://www.w3.org/TR/2001/REC-SVG-20010904/DTD/svg10.dtd">
<svg version="1.0" xmlns="http://www.w3.org/2000/svg"
 width="2560.000000pt" height="1562.000000pt" viewBox="0 0 2560.000000 1562.000000"
 preserveAspectRatio="xMidYMid meet">

<g transform="translate(0.000000,1562.000000) scale(0.100000,-0.100000)"
fill="#000000" stroke="none">
<path d="M4 15558 c3 -35 27 -391 52 -793 25 -401 49 -733 53 -736 3 -4 792
-379 1753 -835 961 -455 1746 -829 1745 -830 -4 -4 -800 311 -1836 727 l-793
318 6 -77 c3 -42 11 -187 17 -322 6 -135 12 -246 13 -246 3 -4 804 -418 1151
-597 464 -238 1662 -836 2027 -1012 147 -71 266 -130 265 -132 -2 -1 -547 238
-1212 532 -664 294 -1212 535 -1216 535 -4 0 -6 -30 -3 -67 6 -96 24 -538 24
-599 l0 -52 372 -183 c578 -286 3521 -1761 3536 -1772 7 -5 11 -11 9 -13 -2
-2 -669 304 -1482 681 -814 376 -1480 683 -1481 682 -2 -2 28 -711 30 -713 0
0 357 -182 791 -404 435 -221 871 -444 970 -495 593 -305 3005 -1535 3011
-1535 4 0 90 32 190 70 101 38 186 70 189 70 3 0 5 -78 5 -174 l0 -173 921
-477 c507 -262 925 -476 930 -476 6 0 91 38 191 85 99 47 182 85 184 85 2 0 4
-71 4 -157 l0 -158 603 -308 c331 -169 872 -446 1202 -616 l600 -308 190 98
c105 54 639 329 1188 611 l997 512 0 128 c0 70 4 128 8 128 5 0 87 -19 183
-42 96 -22 181 -41 190 -42 9 -1 437 217 952 484 l937 485 0 173 c0 94 2 172
5 172 7 0 252 -98 316 -126 l56 -25 2369 1225 c2330 1206 2369 1227 2375 1259
9 46 32 657 25 664 -3 3 -760 -346 -1682 -776 -923 -429 -1678 -780 -1680
-778 -1 1 968 488 2153 1082 1185 594 2158 1085 2162 1090 6 8 42 621 41 697
0 21 25 32 -705 -295 -1357 -606 -1899 -847 -1901 -844 -2 2 108 56 244 122
627 301 3079 1545 3300 1674 l68 40 17 268 c10 147 20 294 24 326 l6 57 -134
-56 c-390 -162 -893 -368 -1598 -654 -1018 -412 -967 -391 -956 -381 6 4 804
391 1774 860 971 468 1767 853 1769 856 6 6 81 1528 75 1534 -1 2 -1743 -508
-3869 -1134 l-3865 -1138 -1092 132 c-601 72 -1109 131 -1129 131 l-38 0 0
-45 c0 -25 2 -45 6 -45 18 0 1848 -241 1851 -244 2 -2 -27 -11 -64 -20 -65
-16 -482 -126 -1389 -366 l-411 -109 -314 60 c-173 33 -683 129 -1134 215
-451 85 -824 155 -828 157 -5 1 356 63 802 136 l811 134 0 58 c0 43 -3 57 -13
54 -7 -3 -458 -81 -1003 -174 l-990 -168 -975 188 c-536 103 -982 190 -991
193 -16 4 -18 -5 -18 -75 0 -43 3 -79 6 -79 4 0 356 -66 783 -146 664 -125
812 -154 779 -154 -3 0 -43 -7 -89 -14 -46 -8 -271 -47 -499 -85 -228 -39
-545 -93 -705 -120 -159 -28 -488 -84 -731 -125 l-441 -76 -864 231 c-956 255
-978 261 -964 265 6 2 282 37 615 80 333 42 787 100 1010 128 l405 51 3 59 c3
52 1 57 -15 52 -10 -3 -554 -71 -1209 -152 l-1191 -147 -1314 386 c-723 212
-2479 728 -3904 1147 -1424 418 -2596 763 -2604 765 -11 4 -12 -7 -7 -57z
m13121 -2559 c105 -22 610 -121 1123 -219 513 -98 935 -180 938 -182 2 -3
-168 -51 -379 -107 -783 -210 -1509 -405 -1739 -466 l-237 -63 -938 248 c-516
136 -1057 278 -1202 316 -177 46 -257 71 -245 76 11 4 116 23 234 43 118 20
490 83 825 141 336 58 725 125 865 149 140 24 316 57 390 74 74 16 144 30 155
30 11 1 106 -17 210 -40z m-8595 -2004 c14 -8 21 -14 15 -14 -5 0 -21 6 -35
14 -14 8 -20 14 -15 14 6 0 21 -6 35 -14z"/>
<path d="M8633 4218 c4 -145 7 -811 7 -1480 l0 -1218 775 0 775 0 0 660 0 660
315 0 315 0 0 220 0 220 -315 0 -315 0 0 370 0 370 313 2 312 3 3 228 2 227
-1096 0 -1097 0 6 -262z"/>
<path d="M11490 3033 c-311 -795 -570 -1461 -577 -1480 l-12 -33 252 0 252 0
60 155 60 155 410 0 410 0 40 -157 40 -158 829 -3 828 -2 -4 22 c-4 17 -1079
2595 -1210 2901 l-20 47 -397 0 -396 0 -565 -1447z m609 -380 c56 -194 101
-357 101 -363 0 -6 -83 -10 -245 -10 -135 0 -245 3 -245 7 0 21 276 731 282
725 3 -4 52 -165 107 -359z"/>
<path d="M14200 3000 l0 -1480 230 0 230 0 2 669 3 668 710 -668 710 -668 443
0 442 -1 0 1460 0 1460 -235 0 -235 0 -2 -556 -3 -556 -615 575 -615 576 -532
0 -533 1 0 -1480z"/>
</g>
</svg>
